<mxfile host="app.diagrams.net" modified="2022-12-22T01:18:48.205Z" agent="5.0 (Macintosh; Intel Mac OS X 10_15_7) AppleWebKit/537.36 (KHTML, like Gecko) Chrome/108.0.0.0 Safari/537.36" etag="9Lnk-9C1OVTbhqcqW6Ev" version="20.6.0" type="github">
  <diagram id="ODRuLJG-FTR8Z9jfNzTU" name="페이지-1">
    <mxGraphModel dx="976" dy="633" grid="1" gridSize="10" guides="1" tooltips="1" connect="1" arrows="1" fold="1" page="1" pageScale="1" pageWidth="827" pageHeight="1169" math="0" shadow="0">
      <root>
        <mxCell id="0" />
        <mxCell id="1" parent="0" />
        <mxCell id="vhxO1wQ4poon8BNvWaCX-2" value="name == name?" style="rhombus;whiteSpace=wrap;html=1;" parent="1" vertex="1">
          <mxGeometry x="60" y="150" width="80" height="80" as="geometry" />
        </mxCell>
        <mxCell id="vhxO1wQ4poon8BNvWaCX-3" value="" style="endArrow=classic;html=1;rounded=0;" parent="1" edge="1">
          <mxGeometry width="50" height="50" relative="1" as="geometry">
            <mxPoint x="100" y="250" as="sourcePoint" />
            <mxPoint x="100" y="300" as="targetPoint" />
          </mxGeometry>
        </mxCell>
        <mxCell id="vhxO1wQ4poon8BNvWaCX-7" value="" style="endArrow=classic;html=1;rounded=0;" parent="1" edge="1">
          <mxGeometry width="50" height="50" relative="1" as="geometry">
            <mxPoint x="100" y="100" as="sourcePoint" />
            <mxPoint x="100" y="140" as="targetPoint" />
          </mxGeometry>
        </mxCell>
        <mxCell id="vhxO1wQ4poon8BNvWaCX-8" value="" style="endArrow=classic;html=1;rounded=0;" parent="1" edge="1">
          <mxGeometry width="50" height="50" relative="1" as="geometry">
            <mxPoint x="180" y="190" as="sourcePoint" />
            <mxPoint x="260" y="190" as="targetPoint" />
          </mxGeometry>
        </mxCell>
        <mxCell id="vhxO1wQ4poon8BNvWaCX-10" value="no" style="text;strokeColor=none;fillColor=none;html=1;fontSize=24;fontStyle=1;verticalAlign=middle;align=center;" parent="1" vertex="1">
          <mxGeometry x="190" y="140" width="50" height="30" as="geometry" />
        </mxCell>
        <mxCell id="vhxO1wQ4poon8BNvWaCX-11" value="yes" style="text;strokeColor=none;fillColor=none;html=1;fontSize=24;fontStyle=1;verticalAlign=middle;align=center;" parent="1" vertex="1">
          <mxGeometry x="120" y="250" width="50" height="30" as="geometry" />
        </mxCell>
        <mxCell id="vhxO1wQ4poon8BNvWaCX-12" value="subject == subject?" style="rhombus;whiteSpace=wrap;html=1;" parent="1" vertex="1">
          <mxGeometry x="60" y="340" width="80" height="80" as="geometry" />
        </mxCell>
        <mxCell id="vhxO1wQ4poon8BNvWaCX-13" value="" style="endArrow=classic;html=1;rounded=0;" parent="1" edge="1">
          <mxGeometry width="50" height="50" relative="1" as="geometry">
            <mxPoint x="100" y="440" as="sourcePoint" />
            <mxPoint x="100" y="490" as="targetPoint" />
          </mxGeometry>
        </mxCell>
        <mxCell id="vhxO1wQ4poon8BNvWaCX-14" value="yes" style="text;strokeColor=none;fillColor=none;html=1;fontSize=24;fontStyle=1;verticalAlign=middle;align=center;" parent="1" vertex="1">
          <mxGeometry x="120" y="440" width="50" height="30" as="geometry" />
        </mxCell>
        <mxCell id="vhxO1wQ4poon8BNvWaCX-17" value="학생을 추가해주세요" style="text;html=1;align=center;verticalAlign=middle;resizable=0;points=[];autosize=1;strokeColor=none;fillColor=none;" parent="1" vertex="1">
          <mxGeometry x="290" y="175" width="120" height="30" as="geometry" />
        </mxCell>
        <mxCell id="vhxO1wQ4poon8BNvWaCX-20" value="" style="endArrow=classic;html=1;rounded=0;" parent="1" edge="1">
          <mxGeometry width="50" height="50" relative="1" as="geometry">
            <mxPoint x="184" y="390" as="sourcePoint" />
            <mxPoint x="264" y="390" as="targetPoint" />
          </mxGeometry>
        </mxCell>
        <mxCell id="vhxO1wQ4poon8BNvWaCX-21" value="no" style="text;strokeColor=none;fillColor=none;html=1;fontSize=24;fontStyle=1;verticalAlign=middle;align=center;" parent="1" vertex="1">
          <mxGeometry x="194" y="340" width="50" height="30" as="geometry" />
        </mxCell>
        <mxCell id="vhxO1wQ4poon8BNvWaCX-22" value="create(name: name, subject: subject, grade: grade)" style="text;html=1;align=center;verticalAlign=middle;resizable=0;points=[];autosize=1;strokeColor=none;fillColor=none;" parent="1" vertex="1">
          <mxGeometry x="300" y="370" width="300" height="30" as="geometry" />
        </mxCell>
        <mxCell id="vhxO1wQ4poon8BNvWaCX-23" value="update(name: name, subject: subject, grade: grade)" style="text;html=1;align=center;verticalAlign=middle;resizable=0;points=[];autosize=1;strokeColor=none;fillColor=none;" parent="1" vertex="1">
          <mxGeometry x="60" y="540" width="300" height="30" as="geometry" />
        </mxCell>
        <mxCell id="IPJRWTNwaBaDau8ooBzF-1" value="시작&lt;br&gt;(사용자 입력)" style="ellipse;whiteSpace=wrap;html=1;" vertex="1" parent="1">
          <mxGeometry x="40" y="10" width="120" height="80" as="geometry" />
        </mxCell>
      </root>
    </mxGraphModel>
  </diagram>
</mxfile>
